<svg width="232" height="175" viewBox="0 0 232 175" fill="none" xmlns="http://www.w3.org/2000/svg">
<path d="M138.777 99.7817C134.385 93.1293 127.855 74.5898 127.855 50.556C127.855 37.1477 121.761 24.2886 110.914 14.8075C100.067 5.32644 85.3553 0 70.0148 0C54.6746 0 39.9628 5.32644 29.1155 14.8075C18.2683 24.2886 12.1744 37.1477 12.1744 50.556C12.1744 74.5898 5.63693 93.1293 1.24564 99.7484C0.435624 100.961 0.0059748 102.339 6.1951e-05 103.743C-0.005855 105.148 0.412174 106.528 1.21195 107.746C2.01173 108.964 3.16496 109.976 4.5552 110.68C5.94548 111.384 7.52358 111.755 9.1302 111.755H42.7918C43.5516 117.601 46.7463 122.998 51.7675 126.916C56.7883 130.834 63.2838 133 70.0148 133C76.7461 133 83.2416 130.834 88.2624 126.916C93.2832 122.998 96.4783 117.601 97.2381 111.755H130.899C132.5 111.75 134.071 111.378 135.455 110.675C136.839 109.973 137.987 108.964 138.785 107.752C139.583 106.539 140.002 105.165 140 103.766C139.999 102.367 139.577 100.993 138.777 99.7817ZM70.0148 127.72C64.8908 127.72 59.9391 126.106 56.0659 123.174C52.1928 120.242 49.658 116.188 48.9261 111.755H91.1038C90.372 116.188 87.8371 120.242 83.964 123.174C80.0908 126.106 75.1387 127.72 70.0148 127.72ZM133.525 105.103C133.265 105.509 132.885 105.847 132.424 106.081C131.964 106.315 131.44 106.437 130.907 106.434H9.1302C8.59755 106.437 8.07361 106.315 7.61307 106.081C7.15258 105.847 6.77237 105.509 6.51215 105.103C6.24498 104.699 6.10433 104.24 6.10433 103.773C6.10433 103.306 6.24498 102.847 6.51215 102.442C12.1744 93.9076 18.2629 74.051 18.2629 50.556C18.2629 38.5591 23.7153 27.0535 33.4207 18.5705C43.1263 10.0874 56.2895 5.3217 70.0148 5.3217C83.7404 5.3217 96.9036 10.0874 106.609 18.5705C116.315 27.0535 121.767 38.5591 121.767 50.556C121.767 74.0444 127.855 93.9076 133.518 102.442C133.786 102.846 133.928 103.305 133.929 103.772C133.931 104.239 133.791 104.698 133.525 105.103Z" fill="black"/>
<path d="M186 174C194.9 174 203.6 171.566 211.001 167.006C218.401 162.446 224.169 155.965 227.575 148.381C230.98 140.798 231.872 132.454 230.135 124.404C228.399 116.354 224.113 108.959 217.82 103.155C211.526 97.3513 203.508 93.3987 194.779 91.7976C186.05 90.1961 177.002 91.0179 168.779 94.1592C160.557 97.2999 153.528 102.619 148.584 109.444C143.639 116.268 141 124.292 141 132.5C141 139.361 142.8 145.826 146 151.53L141 174L165.365 169.389C171.545 172.335 178.565 174 186 174Z" stroke="black" stroke-linecap="round" stroke-linejoin="round"/>
</svg>
