<svg width="472" height="508" viewBox="0 0 472 508" fill="none" xmlns="http://www.w3.org/2000/svg">
<path d="M351.639 235.932C340.672 220.202 324.367 176.366 324.367 119.539C324.367 87.835 309.149 57.4298 282.062 35.012C254.974 12.5943 218.236 0 179.928 0C141.622 0 104.884 12.5943 77.7961 35.012C50.7087 57.4298 35.4912 87.835 35.4912 119.539C35.4912 176.366 19.166 220.202 8.20018 235.853C6.17743 238.721 5.10452 241.979 5.08975 245.299C5.07498 248.619 6.11887 251.884 8.11605 254.764C10.1132 257.644 12.9931 260.037 16.4647 261.701C19.9365 263.366 23.8773 264.242 27.8893 264.243H111.948C113.845 278.065 121.823 290.826 134.362 300.09C146.9 309.355 163.12 314.476 179.928 314.476C196.738 314.476 212.958 309.355 225.496 300.09C238.034 290.826 246.013 278.065 247.91 264.243H331.968C335.964 264.232 339.887 263.351 343.343 261.689C346.799 260.029 349.667 257.644 351.659 254.778C353.651 251.91 354.698 248.66 354.694 245.352C354.691 242.044 353.637 238.795 351.639 235.932ZM179.928 301.993C167.133 301.991 154.768 298.174 145.096 291.242C135.424 284.309 129.094 274.724 127.267 264.243H232.591C230.764 274.724 224.434 284.309 214.762 291.242C205.09 298.174 192.724 301.991 179.928 301.993ZM338.525 248.515C337.875 249.475 336.926 250.274 335.776 250.827C334.625 251.38 333.317 251.668 331.987 251.66H27.8893C26.5592 251.668 25.2508 251.38 24.1008 250.827C22.9508 250.274 22.0014 249.475 21.3516 248.515C20.6844 247.558 20.3332 246.473 20.3332 245.368C20.3332 244.264 20.6844 243.18 21.3516 242.223C35.4912 222.043 50.6952 175.092 50.6952 119.539C50.6952 91.1722 64.3108 63.9676 88.5469 43.9096C112.783 23.8515 145.654 12.5831 179.928 12.5831C214.204 12.5831 247.075 23.8515 271.311 43.9096C295.547 63.9676 309.162 91.1722 309.162 119.539C309.162 175.076 324.367 222.043 338.506 242.223C339.176 243.178 339.531 244.262 339.534 245.366C339.537 246.471 339.189 247.557 338.525 248.515Z" fill="black"/>
<path d="M359.13 336.815L353.46 342.307C354.195 343.074 355.076 343.684 356.05 344.101C357.024 344.516 358.072 344.731 359.13 344.731C360.189 344.731 361.237 344.516 362.211 344.101C363.185 343.684 364.066 343.074 364.801 342.307L359.13 336.815ZM306.643 452.149C305.028 450.813 302.952 450.177 300.87 450.38C298.789 450.585 296.874 451.612 295.546 453.237C294.217 454.861 293.585 456.95 293.788 459.044C293.99 461.138 295.012 463.065 296.627 464.4L306.643 452.149ZM257.726 420.369C258.223 421.281 258.893 422.087 259.699 422.739C260.504 423.391 261.431 423.877 262.423 424.17C263.415 424.462 264.455 424.554 265.484 424.442C266.512 424.33 267.508 424.015 268.415 423.516C269.322 423.017 270.123 422.343 270.771 421.532C271.419 420.721 271.903 419.79 272.193 418.792C272.484 417.794 272.576 416.748 272.464 415.713C272.353 414.679 272.04 413.677 271.544 412.765L257.726 420.369ZM262.01 375.228C262.01 352.52 274.767 333.467 292.185 325.451C309.111 317.667 331.853 319.726 353.46 342.307L364.801 331.333C339.181 304.539 309.405 300.113 285.634 311.044C262.388 321.743 246.261 346.585 246.261 375.228H262.01ZM322.35 484.679C327.737 488.946 333.512 493.488 339.36 496.931C345.208 500.363 351.886 503.162 359.13 503.162V487.319C355.876 487.319 352.054 486.052 347.308 483.253C342.552 480.464 337.628 476.62 332.104 472.237L322.35 484.679ZM395.911 484.679C410.882 472.797 430.033 459.194 445.048 442.179C460.346 424.857 472 403.385 472 375.228H456.251C456.251 398.443 446.801 416.324 433.278 431.659C419.472 447.291 402.073 459.616 386.157 472.237L395.911 484.679ZM472 375.228C472 346.585 455.883 321.743 432.627 311.044C408.856 300.113 379.1 304.539 353.46 331.323L364.801 342.307C386.408 319.737 409.15 317.667 426.075 325.451C443.494 333.467 456.251 352.509 456.251 375.228H472ZM386.157 472.237C380.633 476.62 375.709 480.464 370.953 483.253C366.207 486.041 362.385 487.319 359.13 487.319V503.162C366.375 503.162 373.052 500.363 378.901 496.931C384.76 493.488 390.524 488.946 395.911 484.679L386.157 472.237ZM332.104 472.237C323.747 465.615 315.253 459.278 306.643 452.149L296.627 464.4C305.342 471.614 314.56 478.501 322.35 484.679L332.104 472.237ZM271.544 412.765C265.219 401.277 261.936 388.359 262.01 375.228H246.261C246.261 392.528 250.671 407.388 257.726 420.369L271.544 412.765Z" fill="black"/>
</svg>
