<svg width="32" height="30" viewBox="0 0 32 30" fill="none" xmlns="http://www.w3.org/2000/svg">
<path d="M30.6723 21.9154C29.7754 20.5365 28.4421 16.6349 28.4421 11.539C28.4421 8.47864 27.0799 5.54366 24.6552 3.37968C22.2306 1.21571 18.942 0 15.513 0C12.084 0 8.79544 1.21571 6.37077 3.37968C3.9461 5.54366 2.58394 8.47864 2.58394 11.539C2.58394 16.6363 1.24901 20.5365 0.35206 21.9154C0.123006 22.2659 0.00157621 22.6642 1.52417e-05 23.07C-0.00154572 23.4758 0.116818 23.8748 0.343169 24.2268C0.56952 24.5787 0.895855 24.8712 1.28926 25.0746C1.68267 25.2781 2.12924 25.3854 2.58394 25.3857H9.17938C9.47767 26.6884 10.271 27.8592 11.425 28.7C12.5791 29.5408 14.0232 30 15.513 30C17.0028 30 18.4469 29.5408 19.601 28.7C20.7551 27.8592 21.5483 26.6884 21.8466 25.3857H28.4421C28.8966 25.3852 29.343 25.2777 29.7362 25.0741C30.1294 24.8705 30.4555 24.578 30.6816 24.2261C30.9078 23.8742 31.026 23.4753 31.0244 23.0696C31.0227 22.664 30.9013 22.2658 30.6723 21.9154ZM15.513 27.6935C14.7111 27.6933 13.929 27.4713 13.2743 27.058C12.6197 26.6447 12.1246 26.0605 11.8573 25.3857H19.1687C18.9014 26.0605 18.4063 26.6447 17.7517 27.058C17.097 27.4713 16.3149 27.6933 15.513 27.6935ZM2.58394 23.0779C3.82836 21.1682 5.16975 16.743 5.16975 11.539C5.16975 9.0907 6.25948 6.74272 8.19922 5.01154C10.139 3.28036 12.7698 2.30779 15.513 2.30779C18.2562 2.30779 20.887 3.28036 22.8268 5.01154C24.7665 6.74272 25.8563 9.0907 25.8563 11.539C25.8563 16.7387 27.1944 21.1639 28.4421 23.0779H2.58394Z" fill="black"/>
</svg>
