<svg width="55" height="55" viewBox="0 0 55 55" fill="none" xmlns="http://www.w3.org/2000/svg">
<path d="M41.9832 9.76246C38.5077 6.9089 34.266 5.14683 29.7916 4.69788V9.32704C33.1374 9.73954 36.1853 11.0687 38.7291 13.0395L41.9832 9.76246ZM45.6728 25.2083H50.302C49.8437 20.602 48.0103 16.4083 45.2374 13.0166L41.9603 16.2708C43.9818 18.8603 45.2647 21.9486 45.6728 25.2083ZM41.9603 38.7291L45.2374 42.0062C48.0872 38.5284 49.8488 34.2879 50.302 29.8145H45.6728C45.2603 33.0661 43.9777 36.1459 41.9603 38.7291ZM29.7916 45.6729V50.302C34.3978 49.8437 38.5916 48.0104 41.9832 45.2375L38.7062 41.9604C36.1853 43.9312 33.1374 45.2604 29.7916 45.6729ZM29.7916 27.5V16.0416H25.2083V27.5H16.0416L27.4999 38.9583L38.9582 27.5H29.7916ZM25.2083 45.6729V50.302C13.6353 49.1562 4.58325 39.3937 4.58325 27.5C4.58325 15.6062 13.6353 5.84371 25.2083 4.69788V9.32704C16.1562 10.45 9.16658 18.15 9.16658 27.5C9.16658 36.85 16.1562 44.55 25.2083 45.6729Z" fill="black"/>
</svg>
